<?xml version="1.0" encoding="iso-8859-1"?>
<!-- Generator: Adobe Illustrator 18.0.0, SVG Export Plug-In . SVG Version: 6.00 Build 0)  -->
<!DOCTYPE svg PUBLIC "-//W3C//DTD SVG 1.1//EN" "http://www.w3.org/Graphics/SVG/1.1/DTD/svg11.dtd">
<svg version="1.1" id="Capa_1" xmlns="http://www.w3.org/2000/svg" xmlns:xlink="http://www.w3.org/1999/xlink" x="0px" y="0px"
	 viewBox="0 0 297 297" style="enable-background:new 0 0 297 297;" xml:space="preserve">
<g>
	<path d="M285.414,5.302C283.709,2.042,280.335,0,276.657,0h-79.234c-3.239,0-6.273,1.587-8.119,4.248L148.5,63.036L107.694,4.248
		C105.849,1.587,102.814,0,99.575,0H20.344c-3.679,0-7.053,2.042-8.758,5.302c-1.705,3.26-1.459,7.195,0.638,10.218l68.971,99.37
		c-3.607,1.473-6.152,5.012-6.152,9.148c0,5.458,4.426,9.884,9.884,9.884h6.862c-21.133,16.761-34.712,42.65-34.712,71.655
		c0,50.411,41.012,91.423,91.423,91.423c50.411,0,91.423-41.012,91.423-91.423c0-29.005-13.579-54.895-34.712-71.655h6.862
		c5.458,0,9.884-4.426,9.884-9.884c0-4.137-2.545-7.676-6.152-9.148l68.973-99.37C286.873,12.497,287.119,8.561,285.414,5.302z
		 M94.405,19.768l42.063,60.603l-23.449,33.784h-8.273L39.234,19.768H94.405z M220.154,205.577
		c0,39.511-32.145,71.655-71.655,71.655c-39.511,0-71.655-32.144-71.655-71.655c0-39.511,32.144-71.655,71.655-71.655
		C188.01,133.922,220.154,166.066,220.154,205.577z M192.252,114.154h-55.171l65.512-94.387h55.173L192.252,114.154z"/>
	<path d="M157.176,144.531c-1.688-3.31-5.089-5.393-8.804-5.393c-3.716,0-7.117,2.083-8.805,5.393l-14.428,28.285l-31.227,5.032
		c-3.657,0.59-6.678,3.175-7.825,6.696s-0.229,7.39,2.378,10.02l22.342,22.535l-4.889,31.428c-0.57,3.667,0.961,7.344,3.966,9.521
		c3.005,2.179,6.978,2.489,10.283,0.806l28.204-14.356l28.203,14.356c1.415,0.721,2.952,1.075,4.482,1.075
		c2.046,0,4.082-0.635,5.801-1.88c3.005-2.179,4.536-5.855,3.966-9.521l-4.887-31.429l22.34-22.535
		c2.607-2.63,3.525-6.498,2.378-10.02c-1.148-3.521-4.168-6.106-7.825-6.696l-31.227-5.032L157.176,144.531z M168.386,206.729
		c-2.21,2.229-3.229,5.375-2.747,8.477l2.686,17.269l-15.47-7.874c-1.408-0.718-2.945-1.075-4.482-1.075
		c-1.538,0-3.075,0.357-4.483,1.075l-15.469,7.874l2.687-17.268c0.482-3.103-0.537-6.249-2.747-8.478l-12.316-12.424l17.193-2.771
		c3.113-0.502,5.8-2.459,7.232-5.268l7.903-15.493l7.902,15.493c1.433,2.809,4.119,4.766,7.232,5.268l17.194,2.771L168.386,206.729z
		"/>
</g>
<g>
</g>
<g>
</g>
<g>
</g>
<g>
</g>
<g>
</g>
<g>
</g>
<g>
</g>
<g>
</g>
<g>
</g>
<g>
</g>
<g>
</g>
<g>
</g>
<g>
</g>
<g>
</g>
<g>
</g>
</svg>
