<?xml version="1.0" encoding="iso-8859-1"?>
<!-- Generator: Adobe Illustrator 19.0.0, SVG Export Plug-In . SVG Version: 6.00 Build 0)  -->
<svg version="1.1" id="Layer_1" xmlns="http://www.w3.org/2000/svg" xmlns:xlink="http://www.w3.org/1999/xlink" x="0px" y="0px"
	 viewBox="0 0 512 512" style="enable-background:new 0 0 512 512;" xml:space="preserve">
<g>
	<rect x="75.996" y="96.08" style="fill:#1D1D1B;" width="48" height="15.674"/>
	<rect x="243.997" y="96.08" style="fill:#1D1D1B;" width="48.001" height="15.674"/>
	<rect x="411.998" y="96.08" style="fill:#1D1D1B;" width="48" height="15.674"/>
	<path style="fill:#1D1D1B;" d="M511.836,40.082h-68v-32h-63.675v31.999H275.836V8.081h-63.674v31.999H107.836V8.081H44.163v31.999
		h-44v263.674h511.674V40.082H511.836z M395.836,23.755h32.327v16.326h-32.327V23.755z M227.837,23.755h32.326v16.326h-32.326
		V23.755z M59.837,23.755h32.326v16.326H59.837V23.755z M496.162,288.081H15.837V55.755h76.327v16.327h-8.164v15.674h32V72.082
		h-8.164V55.755h152.326v16.327h-8.164v15.674h32V72.082h-8.164V55.755h152.328v16.327h-8.164v15.674h32V72.082h-8.164V55.755
		h52.326v232.325H496.162z"/>
	<path style="fill:#1D1D1B;" d="M0,312.808v15.674h200.163v31.274h111.673v-31.274H512v-15.674H0z M296.162,344.082h-80.325v-15.6
		h80.325L296.162,344.082L296.162,344.082z"/>
	<polygon style="fill:#1D1D1B;" points="231.999,383.755 248.163,383.755 248.163,503.919 263.837,503.919 263.837,383.755 
		280,383.755 280,368.081 231.999,368.081 	"/>
	<rect x="39.999" y="184.082" style="fill:#1D1D1B;" width="159.997" height="15.674"/>
	<rect x="39.999" y="216.077" style="fill:#1D1D1B;" width="79.998" height="15.674"/>
	<rect x="39.999" y="248.083" style="fill:#1D1D1B;" width="56" height="15.674"/>
</g>
<g>
</g>
<g>
</g>
<g>
</g>
<g>
</g>
<g>
</g>
<g>
</g>
<g>
</g>
<g>
</g>
<g>
</g>
<g>
</g>
<g>
</g>
<g>
</g>
<g>
</g>
<g>
</g>
<g>
</g>
</svg>
